<svg width="18" height="14" viewBox="0 0 18 14" fill="none" xmlns="http://www.w3.org/2000/svg">
<path d="M4.05 13.2997C1.81406 13.2997 0 11.4856 0 9.24971C0 7.48346 1.13062 5.98158 2.70562 5.42752C2.70281 5.35158 2.7 5.27564 2.7 5.19971C2.7 2.71346 4.71375 0.699707 7.2 0.699707C8.86781 0.699707 10.3219 1.60533 11.1009 2.95533C11.5284 2.66846 12.0459 2.49971 12.6 2.49971C14.0906 2.49971 15.3 3.70908 15.3 5.19971C15.3 5.54283 15.2353 5.86908 15.12 6.17283C16.7625 6.50471 18 7.95877 18 9.69971C18 11.6881 16.3884 13.2997 14.4 13.2997H4.05ZM6.27187 8.60283L8.52187 10.8528C8.78625 11.1172 9.21375 11.1172 9.47531 10.8528L11.7253 8.60283C11.9897 8.33846 11.9897 7.91096 11.7253 7.64939C11.4609 7.38783 11.0334 7.38502 10.7719 7.64939L9.675 8.74627V4.97471C9.675 4.60064 9.37406 4.29971 9 4.29971C8.62594 4.29971 8.325 4.60064 8.325 4.97471V8.74627L7.22812 7.64939C6.96375 7.38502 6.53625 7.38502 6.27469 7.64939C6.01312 7.91377 6.01031 8.34127 6.27469 8.60283H6.27187Z" fill="#246EB9"/>
</svg>
